#!OML:ASF F:\VICON\USERDATA\INSTALL\rory3\rory3.ASF
:FULLY-SPECIFIED
:DEGREES
582
root -0.0241761 17.0086 -35.7293 -158.265 -13.0469 -176.82
lowerback -7.67187 0.332083 7.63051
upperback -7.98855 -0.737929 1.33132
thorax -4.10404 -1.08845 -2.88119
lowerneck -13.996 0.245755 -3.3478
upperneck 29.5594 -0.704007 0.43889
head 12.0339 -1.30896 0.49865
rclavicle 3.68994e-015 -7.95139e-015
rhumerus -363.265 -45.7663 332.255
rradius 14.0257
rwrist 30.9102
rhand 7.52846 367.538
rfingers 7.12502
rthumb 32.7786 -19.5085
lclavicle 3.68994e-015 -7.95139e-015
lhumerus 2.91704 -26.1758 86.5684
lradius 18.3019
lwrist -28.5014
lhand 17.0923 22.0044
lfingers 7.12502
lthumb 41.8173 46.6554
rfemur 157.531 -185.138 -149.377
rtibia 36.8527
rfoot -11.2018 -28.1572
rtoes 29.1352
lfemur -63.3927 4.22991 -22.2119
ltibia 39.3972
lfoot -17.6141 24.5137
ltoes 18.4442
583
root -0.0912447 16.9776 -35.9253 -158.23 -12.6945 -176.412
lowerback -10.3288 0.299733 7.65026
upperback -7.00702 -1.03816 1.50343
thorax -1.62752 -1.10426 -2.80416
lowerneck -14.8618 0.120854 -3.88154
upperneck 29.9051 -0.919508 1.17534
head 12.3618 -1.36512 0.834526
rclavicle 1.86112e-014 2.38542e-015
rhumerus -362.211 -48.0071 331.293
rradius 13.8001
rwrist 32.52
rhand 7.46788 367.539
rfingers 7.12502
rthumb 32.7209 -19.5193
lclavicle 1.86112e-014 2.38542e-015
lhumerus 5.58502 -27.6841 85.3685
lradius 19.2007
lwrist -27.4888
lhand 16.8437 21.7292
lfingers 7.12502
lthumb 41.5842 46.457
rfemur 157.983 -184.83 -149.23
rtibia 36.3975
rfoot -10.9439 -28.7969
rtoes 25.7099
lfemur -64.0126 6.20364 -24.1762
ltibia 39.6216
lfoot -15.9228 26.5936
ltoes 16.6993
584
root -0.115524 16.9358 -36.0284 -158.492 -11.049 -177.345
lowerback -10.788 0.189385 5.70996
upperback -6.20637 -0.96659 1.29194
thorax -0.486042 -0.907755 -1.96071
lowerneck -15.0964 0.45685 -2.37926
upperneck 29.2092 -0.366399 0.0850214
head 12.1131 -1.03349 0.255995
rclavicle -6.41081e-015 8.34896e-015
rhumerus -361.426 -49.4273 330.469
rradius 13.8395
rwrist 33.3379
rhand 7.53493 366.918
rfingers 7.12502
rthumb 32.7847 -20.1274
lclavicle -6.41081e-015 8.34896e-015
lhumerus 8.28939 -28.3556 84.0381
lradius 20.0732
lwrist -27.2305
lhand 17.0666 21.1758
lfingers 7.12502
lthumb 41.7932 45.8347
rfemur 158.886 -185.891 -150.475
rtibia 36.1109
rfoot -11.4571 -30.0477
rtoes 26.4471
lfemur -63.8683 7.32748 -26.3484
ltibia 39.7642
lfoot -18.1661 28.3864
ltoes 19.2431
585
root -0.115615 16.8545 -36.1681 -159.039 -9.96322 -175.964
lowerback -9.08817 0.722545 5.96977
upperback -7.65976 -0.285432 1.61565
thorax -2.88894 -0.744607 -1.66379
lowerneck -13.3992 0.577365 -2.63964
upperneck 30.2826 -0.739037 0.687061
head 12.1956 -1.3015 0.448385
rclavicle -9.16894e-015 -8.54774e-015
rhumerus -364.241 -50.421 333.288
rradius 13.1768
rwrist 36.3861
rhand 7.45634 366.808
rfingers 7.12502
rthumb 32.71 -20.2528
lclavicle -9.16894e-015 -8.54774e-015
lhumerus 6.82192 -30.392 84.8899
lradius 21.1889
lwrist -26.4217
lhand 16.8716 20.9556
lfingers 7.12502
lthumb 41.6104 45.6748
rfemur 160.309 -187.229 -148.806
rtibia 35.7646
rfoot -13.1639 -31.0467
rtoes 28.7407
lfemur -64.2987 8.9313 -25.9093
ltibia 40.1332
lfoot -19.2875 30.6511
ltoes 17.0126
586
root -0.175876 16.8033 -36.2956 -159.307 -9.4236 -175.629
lowerback -11.3555 0.76394 5.95789
upperback -5.94237 -0.315539 1.84705
thorax 0.150187 -0.569843 -1.46485
lowerneck -14.9078 0.573746 -2.31253
upperneck 29.6134 -0.377278 0.287381
head 12.2348 -1.04184 0.311311
rclavicle -5.8393e-015 -1.39149e-015
rhumerus -362.532 -53.8741 332.401
rradius 13.2118
rwrist 37.9912
rhand 7.42622 366.455
rfingers 7.12502
rthumb 32.6813 -20.6122
lclavicle -5.8393e-015 -1.39149e-015
lhumerus 11.8753 -33.0606 81.9502
lradius 22.1693
lwrist -23.7531
lhand 16.8313 21.4461
lfingers 7.12502
lthumb 41.5725 46.1778
rfemur 161.363 -186.76 -148.409
rtibia 35.6977
rfoot -15.0739 -30.926
rtoes 29.7848
lfemur -64.4804 10.015 -27.0465
ltibia 40.4413
lfoot -17.6945 33.1585
ltoes 15.2555
587
root -0.203686 16.7511 -36.4899 -159.194 -7.95818 -176.426
lowerback -11.1699 1.02744 4.4109
upperback -6.97374 0.109325 1.45816
thorax -0.995735 -0.422254 -0.946607
lowerneck -13.4891 0.778049 -1.96643
upperneck 30.2232 -0.480953 0.288476
head 12.1841 -1.15382 0.219105
rclavicle 9.48576e-015 3.37934e-015
rhumerus -364.527 -56.5214 334.424
rradius 12.6598
rwrist 42.2308
rhand 7.22631 366.92
rfingers 7.12502
rthumb 32.4911 -20.1857
lclavicle 9.48576e-015 3.37934e-015
lhumerus 11.6901 -36.0557 81.2835
lradius 23.3704
lwrist -22.0516
lhand 16.9721 21.6643
lfingers 7.12502
lthumb 41.7046 46.3526
rfemur 162.345 -187.469 -149.458
rtibia 35.386
rfoot -17.0817 -31.3826
rtoes 30.854
lfemur -64.7515 11.9094 -29.8357
ltibia 40.9834
lfoot -14.5541 35.0964
ltoes 10.2414
588
root -0.2659 16.655 -36.5617 -159.934 -7.67567 -175.113
lowerback -9.85731 1.15677 5.64589
upperback -7.40975 0.227458 1.81752
thorax -2.16404 -0.45533 -1.24492
lowerneck -12.9184 1.10218 -1.50314
upperneck 30.5408 -0.207188 0.079254
head 12.189 -1.0572 0.0887802
rclavicle -1.3977e-014 3.57812e-015
rhumerus -365.271 -57.59 335.81
rradius 12.3651
rwrist 43.6176
rhand 7.47121 367.009
rfingers 7.12502
rthumb 32.7241 -20.0491
lclavicle -1.3977e-014 3.57812e-015
lhumerus 12.9734 -37.475 80.033
lradius 24.2857
lwrist -21.5645
lhand 16.8647 21.2136
lfingers 7.12502
lthumb 41.6039 45.9349
rfemur 163.471 -187.337 -148.061
rtibia 35.2344
rfoot -17.2355 -31.7631
rtoes 28.1714
lfemur -64.8064 12.4993 -29.2165
ltibia 41.6209
lfoot -14.411 36.5828
ltoes 11.5873
589
root -0.354629 16.5813 -36.7796 -159.792 -7.34096 -175.705
lowerback -12.4198 1.06777 5.16225
upperback -6.71464 -0.0346017 1.64571
thorax -0.0580716 -0.501775 -1.1941
lowerneck -13.4114 1.18294 -1.6999
upperneck 30.8676 -0.216184 0.617144
head 12.424 -1.02153 0.321555
rclavicle 7.82715e-016 2.68359e-014
rhumerus -364.881 -61.9894 336.14
rradius 12.1435
rwrist 47.1728
rhand 7.76229 366.4
rfingers 7.12502
rthumb 33.001 -20.6
lclavicle 7.82715e-016 2.68359e-014
lhumerus 15.9897 -38.4989 77.6051
lradius 25.1973
lwrist -21.1131
lhand 16.8315 20.7656
lfingers 7.12502
lthumb 41.5727 45.4972
rfemur 164.823 -185.7 -148.969
rtibia 34.6784
rfoot -18.3645 -30.8391
rtoes 25.8689
lfemur -65.1364 13.8023 -31.9624
ltibia 42.6661
lfoot -10.2185 36.4321
ltoes 11.1415
590
root -0.362413 16.4728 -36.9025 -160.022 -5.66026 -175.648
lowerback -9.80753 1.54198 4.2586
upperback -8.91564 0.627354 1.53215
thorax -3.76254 -0.372099 -0.715507
lowerneck -11.5643 1.54022 -2.01642
upperneck 32.6709 -0.533259 1.37666
head 12.7817 -1.34859 0.573598
rclavicle -7.01958e-015 -2.98177e-014
rhumerus -369.09 -56.6317 340.387
rradius 12.6865
rwrist 44.5637
rhand 8.35842 365.01
rfingers 7.12502
rthumb 33.5677 -21.869
lclavicle -7.01958e-015 -2.98177e-014
lhumerus 13.8266 -40.6653 78.173
lradius 26.443
lwrist -20.6619
lhand 16.9009 20.6056
lfingers 7.12502
lthumb 41.6379 45.3158
rfemur 166.01 -188.115 -149.112
rtibia 34.2961
rfoot -20.9319 -31.6831
rtoes 27.156
lfemur -65.4388 14.8246 -32.4614
ltibia 43.7655
lfoot -8.35207 36.7956
ltoes 10.9968
591
root -0.497099 16.3481 -37.0527 -160.106 -7.2723 -173.736
lowerback -12.4059 1.40412 7.39964
upperback -7.76775 -0.0271574 2.08712
thorax -1.18525 -0.716905 -1.96638
lowerneck -12.479 1.47751 -1.79789
upperneck 32.08 -0.264503 0.910274
head 12.7256 -1.16951 0.411652
rclavicle 3.83592e-015 -2.90226e-014
rhumerus -368.447 -69.1818 341.298
rradius 12.0915
rwrist 55.2282
rhand 8.26099 365.906
rfingers 7.12502
rthumb 33.4751 -20.9929
lclavicle 3.83592e-015 -2.90226e-014
lhumerus 18.8932 -41.5307 73.9809
lradius 27.4437
lwrist -19.6439
lhand 17.5409 20.4868
lfingers 7.12502
lthumb 42.2378 44.9967
rfemur 167.35 -184.841 -147.23
rtibia 33.3079
rfoot -21.0215 -30.0509
rtoes 22.9728
lfemur -66.3185 14.6261 -31.6944
ltibia 45.4853
lfoot -6.08047 35.1807
ltoes 8.60745
592
root -0.529925 16.231 -37.1505 -160.627 -6.13048 -174.104
lowerback -10.3558 1.62559 6.63921
upperback -8.94557 0.461889 1.84248
thorax -3.50185 -0.595814 -1.72566
lowerneck -11.3483 1.73535 -1.50702
upperneck 32.8685 -0.338082 0.997373
head 12.8158 -1.28362 0.357743
rclavicle 1.27346e-015 -1.47101e-014
rhumerus -383.318 -81.8331 357.542
rradius 11.7447
rwrist 69.17
rhand 8.17702 367.726
rfingers 7.12502
rthumb 33.3953 -19.1897
lclavicle 1.27346e-015 -1.47101e-014
lhumerus 19.5768 -43.4361 72.6306
lradius 28.5143
lwrist -19.2213
lhand 18.4408 20.3227
lfingers 7.12502
lthumb 43.0799 44.5403
rfemur 168.961 -186.4 -147.747
rtibia 32.784
rfoot -22.9113 -30.5256
rtoes 21.8592
lfemur -66.0539 15.0113 -32.2492
ltibia 46.7948
lfoot -8.3497 34.6337
ltoes 10.5686
593
root -0.573761 16.0892 -37.3765 -160.351 -5.91341 -172.964
lowerback -14.0614 1.79642 7.26889
upperback -7.57183 0.25555 2.35141
thorax -0.0635869 -0.55839 -1.58885
lowerneck -13.0347 1.73528 -1.8119
upperneck 32.885 -0.0937589 1.22441
head 13.1812 -1.10226 0.549172
rclavicle 1.73502e-014 9.93923e-015
rhumerus -368.942 -39.1877 341.994
rradius 14.7821
rwrist 24.1494
rhand 8.00944 361.069
rfingers 7.12502
rthumb 33.236 -25.881
lclavicle 1.73502e-014 9.93923e-015
lhumerus 25.5473 -43.7438 67.4436
lradius 29.3846
lwrist -18.2062
lhand 19.1504 20.4945
lfingers 7.12502
lthumb 43.7429 44.4726
rfemur 170.348 -186.942 -146.649
rtibia 31.8833
rfoot -24.5599 -30.2185
rtoes 19.1114
lfemur -67.0655 15.8877 -31.8964
ltibia 48.5723
lfoot -9.89592 33.2778
ltoes 10.6472
594
root -0.574896 15.9653 -37.5246 -160.503 -4.26415 -173.783
lowerback -13.1486 1.86617 5.36389
upperback -8.56736 0.558166 2.25749
thorax -1.58541 -0.462158 -0.574657
lowerneck -11.7199 2.17182 -1.04054
upperneck 33.1522 0.299139 0.621105
head 13.0098 -1.00671 0.21559
rclavicle 4.95719e-015 3.79679e-014
rhumerus -369.929 -55.2579 345.187
rradius 12.708
rwrist 40.8984
rhand 7.81132 363.108
rfingers 7.12502
rthumb 33.0476 -23.8821
lclavicle 4.95719e-015 3.79679e-014
lhumerus 26.5168 -44.4299 65.8634
lradius 30.1085
lwrist -17.9441
lhand 19.2412 20.5341
lfingers 7.12502
lthumb 43.8276 44.481
rfemur 171.77 -189.541 -147.585
rtibia 31.4553
rfoot -26.6184 -31.0244
rtoes 17.1227
lfemur -67.0858 17.0036 -33.1863
ltibia 49.8577
lfoot -13.0578 32.4505
ltoes 13.1221
595
root -0.671906 15.8446 -37.6497 -160.166 -4.54583 -174.223
lowerback -12.5253 1.93879 5.7677
upperback -9.97737 0.45817 1.92047
thorax -3.42513 -0.72104 -1.13516
lowerneck -10.6026 2.28167 -1.78972
upperneck 34.2095 -0.132697 1.58561
head 13.221 -1.33736 0.6252
rclavicle -1.05356e-014 -1.31198e-014
rhumerus -370.764 -43.0341 346.251
rradius 13.8115
rwrist 29.9864
rhand 7.69856 361.269
rfingers 7.12502
rthumb 32.9404 -25.7441
lclavicle -1.05356e-014 -1.31198e-014
lhumerus 27.3501 -45.6603 64.2777
lradius 30.9325
lwrist -17.2186
lhand 18.8452 20.5624
lfingers 7.12502
lthumb 43.4578 44.6445
rfemur 172.531 -188.479 -148.46
rtibia 30.9471
rfoot -27.559 -30.1003
rtoes 12.8966
lfemur -67.5631 16.7078 -34.3213
ltibia 51.368
lfoot -13.7826 31.4392
ltoes 11.0052
